<?xml version="1.0" standalone="no"?>
<!DOCTYPE svg PUBLIC "-//W3C//DTD SVG 20010904//EN"
 "http://www.w3.org/TR/2001/REC-SVG-20010904/DTD/svg10.dtd">
<svg version="1.0" xmlns="http://www.w3.org/2000/svg"
 width="512.000000pt" height="512.000000pt" viewBox="0 0 512.000000 512.000000"
 preserveAspectRatio="xMidYMid meet">

<g transform="translate(0.000000,512.000000) scale(0.100000,-0.100000)"
fill="#000000" stroke="none">
<path d="M2150 5109 c-164 -32 -305 -186 -330 -361 -6 -35 -10 -611 -10 -1306
l0 -1242 -308 154 c-170 85 -338 164 -373 176 -365 120 -679 -164 -570 -517 5
-18 25 -56 45 -85 49 -75 1490 -1509 1593 -1586 398 -299 900 -410 1343 -297
533 137 919 554 1027 1110 13 68 16 226 20 1052 3 608 1 998 -6 1043 -40 289
-337 454 -600 334 -29 -13 -55 -24 -57 -24 -2 0 -14 21 -26 48 -12 26 -47 72
-78 103 -142 143 -349 167 -530 62 -3 -2 -16 17 -28 42 -26 54 -102 138 -154
171 -104 66 -249 82 -370 40 l-68 -23 0 341 c0 188 -5 369 -10 404 -35 247
-265 409 -510 361z m195 -233 c21 -11 53 -41 70 -64 l30 -44 5 -1066 c5 -1013
6 -1068 23 -1094 39 -58 135 -58 174 0 17 25 18 64 23 557 6 588 2 560 74 623
78 68 194 68 272 0 72 -63 68 -35 74 -623 5 -493 6 -532 23 -557 25 -37 77
-53 121 -38 72 23 70 16 76 492 l5 426 30 44 c87 123 263 123 350 0 l30 -44 5
-426 c5 -393 6 -429 23 -454 39 -58 135 -58 174 0 16 24 18 58 23 347 l5 320
27 38 c14 22 43 51 65 65 33 23 48 27 113 27 65 0 80 -4 113 -27 22 -14 51
-43 65 -65 l27 -38 3 -995 c3 -1085 3 -1085 -54 -1256 -151 -450 -544 -763
-1012 -803 -322 -28 -666 68 -946 266 -109 77 -1557 1518 -1586 1578 -55 113
5 242 127 274 91 25 134 9 583 -214 228 -113 425 -206 438 -205 33 0 79 26 94
53 10 17 14 308 18 1409 l5 1386 30 43 c66 94 179 120 280 65z"/>
</g>
</svg>
