<?xml version="1.0" standalone="no"?>
<!DOCTYPE svg PUBLIC "-//W3C//DTD SVG 20010904//EN"
 "http://www.w3.org/TR/2001/REC-SVG-20010904/DTD/svg10.dtd">
<svg version="1.0" xmlns="http://www.w3.org/2000/svg"
 width="512.000000pt" height="512.000000pt" viewBox="0 0 512.000000 512.000000"
 preserveAspectRatio="xMidYMid meet">

<g transform="translate(0.000000,512.000000) scale(0.100000,-0.100000)"
fill="#000000" stroke="none">
<path d="M498 5110 c-111 -11 -138 -17 -164 -38 -30 -25 -44 -55 -44 -94 0
-46 19 -78 58 -101 31 -19 42 -19 205 -8 426 30 889 -59 1207 -232 208 -113
424 -302 547 -480 95 -136 105 -224 42 -356 -37 -78 -48 -181 -29 -276 7 -33
15 -163 19 -290 6 -208 9 -235 29 -279 12 -28 106 -179 207 -336 196 -303 207
-327 164 -366 -17 -15 -42 -20 -129 -24 -97 -4 -111 -8 -134 -29 -48 -45 -50
-74 -16 -216 17 -70 28 -135 25 -144 -3 -9 -19 -25 -35 -34 -63 -38 -76 -107
-34 -187 31 -60 28 -85 -21 -145 -47 -57 -61 -96 -70 -190 -10 -113 -37 -179
-99 -241 -94 -93 -220 -118 -366 -73 -108 34 -225 33 -300 -2 -75 -36 -140
-96 -173 -161 -42 -82 -57 -185 -57 -384 0 -137 -3 -174 -13 -174 -7 0 -199
59 -426 131 -227 71 -429 131 -450 132 -102 4 -155 -114 -88 -196 19 -24 78
-46 462 -169 385 -123 449 -140 510 -141 76 -1 117 14 168 62 66 61 87 150 80
336 -6 136 9 258 35 295 10 14 35 33 55 43 37 18 39 18 105 -1 161 -48 245
-53 367 -22 241 62 412 263 432 509 5 65 10 81 36 110 57 66 72 115 72 231 1
91 4 112 25 155 20 41 25 65 25 130 0 44 -3 92 -7 106 -7 25 -5 27 33 33 95
15 189 90 231 181 30 68 31 180 1 247 -12 26 -102 172 -200 325 -98 153 -184
291 -191 306 -8 18 -12 85 -12 195 0 104 -6 210 -17 282 l-17 116 40 94 c37
91 39 100 39 205 0 138 -18 197 -95 314 -135 205 -321 387 -530 518 -264 167
-524 258 -895 314 -148 23 -468 33 -607 19z"/>
<path d="M4450 3287 c-14 -7 -288 -206 -609 -443 -353 -259 -591 -441 -603
-459 -53 -88 33 -203 131 -175 34 9 1178 844 1224 891 39 42 39 115 -1 160
-33 37 -100 49 -142 26z"/>
<path d="M3488 1804 c-54 -29 -74 -109 -41 -165 36 -60 23 -59 685 -59 679 0
655 -3 692 73 16 33 17 45 7 77 -6 21 -25 50 -42 64 l-31 26 -621 0 c-531 -1
-626 -3 -649 -16z"/>
<path d="M3295 1190 c-62 -25 -91 -108 -58 -168 24 -44 1192 -919 1238 -928
98 -18 177 94 123 176 -23 35 -1124 870 -1200 910 -39 21 -70 24 -103 10z"/>
</g>
</svg>
